<?xml version="1.0" standalone="no"?>
<!DOCTYPE svg PUBLIC "-//W3C//DTD SVG 20010904//EN"
 "http://www.w3.org/TR/2001/REC-SVG-20010904/DTD/svg10.dtd">
<svg version="1.0" xmlns="http://www.w3.org/2000/svg"
 width="512.000000pt" height="512.000000pt" viewBox="0 0 512.000000 512.000000"
 preserveAspectRatio="xMidYMid meet">
<metadata>
Created by potrace 1.11, written by Peter Selinger 2001-2013
</metadata>
<g transform="translate(0.000000,512.000000) scale(0.100000,-0.100000)"
fill="#000000" stroke="none">
<path d="M0 4125 l0 -995 428 2 c394 2 407 3 172 8 -253 5 -258 7 -65 16 158
8 169 9 182 17 6 4 23 3 36 -2 16 -6 38 -6 57 -1 17 5 41 5 53 1 12 -5 34 -5
49 0 16 4 28 4 28 -2 0 -17 27 -9 50 16 27 29 42 28 50 -4 l5 -22 22 20 c27
26 29 26 36 1 4 -15 14 -20 39 -20 18 0 44 -4 58 -8 17 -5 -3 -9 -65 -13 -49
-3 120 -6 378 -7 l467 -2 1 773 c0 424 2 799 5 832 3 33 12 119 19 190 8 72
15 145 15 163 l0 32 -1010 0 -1010 0 0 -995z"/>
<path d="M2114 5088 c12 -70 26 -190 41 -370 13 -152 15 -332 14 -975 -2 -558
-5 -790 -13 -795 -6 -4 -494 -8 -1083 -8 l-1073 0 0 -380 0 -380 1074 0 c847
0 1076 -3 1083 -12 15 -20 11 -1703 -5 -1803 -31 -201 -35 -224 -43 -219 -5 3
-9 -7 -9 -21 0 -36 -24 -27 -28 10 -3 20 -6 24 -12 15 -7 -11 -11 -10 -25 4
-13 12 -15 26 -10 52 4 22 3 34 -3 30 -5 -3 -12 26 -16 67 -4 39 -11 117 -16
172 -5 55 -9 417 -9 805 0 388 -3 706 -6 708 -3 1 -448 2 -990 2 l-985 0 0
-995 0 -995 1491 0 1491 0 -5 62 c-2 35 -15 164 -27 288 -21 216 -22 257 -18
1016 3 434 8 795 12 802 5 9 262 12 1092 12 l1084 0 0 380 0 380 -1084 0
c-658 0 -1087 4 -1091 9 -3 5 -8 337 -11 738 -7 770 -1 948 37 1207 21 146 36
181 64 152 8 -8 15 -22 15 -30 0 -9 4 -16 8 -16 11 0 28 -94 46 -260 14 -120
16 -274 16 -880 l0 -735 1000 3 1000 2 0 995 0 995 -1506 0 -1506 0 6 -32z
m480 -2168 c43 -39 86 -123 86 -170 0 -22 -16 -69 -42 -121 -23 -46 -47 -109
-53 -139 -10 -48 -15 -55 -36 -55 -20 0 -25 6 -31 45 -4 25 -28 87 -53 138
-55 114 -58 155 -15 228 27 49 81 104 100 104 5 0 25 -14 44 -30z m-264 -306
c23 -9 37 -21 33 -27 -3 -6 -1 -7 5 -3 23 14 91 -87 92 -136 0 -29 -38 -21
-54 11 -17 32 -34 41 -79 41 -35 0 -67 -25 -67 -52 0 -40 -94 1 -106 47 -14
57 14 98 86 122 46 15 44 15 90 -3z m525 5 c111 -30 128 -134 31 -183 -33 -17
-46 -13 -46 11 0 30 -31 53 -71 53 -38 0 -60 -14 -79 -51 -12 -22 -50 -26 -50
-5 0 23 23 80 44 110 12 16 44 39 71 52 59 28 50 27 100 13z m-100 -239 c0
-13 -29 -15 -205 -15 -188 0 -205 1 -208 18 -3 16 10 17 205 15 177 -3 208 -5
208 -18z m-152 -89 c6 -26 4 -43 -10 -70 -32 -63 -44 -65 -76 -14 -44 71 -21
137 44 124 27 -5 35 -13 42 -40z m-157 -9 c-8 -15 -22 -35 -31 -42 -21 -18
-78 -18 -99 -1 -22 18 -20 58 3 71 26 14 28 13 34 -10 8 -31 62 -27 84 6 22
34 29 15 9 -24z m264 -2 c19 0 33 7 40 20 9 17 14 18 31 9 30 -15 22 -60 -14
-77 -38 -18 -76 -4 -104 38 -30 43 -31 76 -2 38 14 -19 30 -28 49 -28z"/>
<path d="M958 3133 c6 -2 18 -2 25 0 6 3 1 5 -13 5 -14 0 -19 -2 -12 -5z"/>
<path d="M3120 1171 c0 -653 -3 -843 -14 -938 -8 -65 -17 -144 -19 -175 l-4
-58 1019 0 1018 0 0 995 0 995 -477 -2 c-263 -1 -456 -3 -430 -5 41 -4 47 -6
37 -19 -14 -15 -46 -19 -54 -6 -7 12 -67 2 -91 -14 -24 -17 -36 -18 -32 -2 1
7 -9 14 -23 16 -14 1 -36 6 -50 9 -20 6 -14 8 30 13 30 4 -162 7 -427 8 l-483
2 0 -819z m838 802 c-10 -2 -28 -2 -40 0 -13 2 -5 4 17 4 22 1 32 -1 23 -4z
m522 -4 c0 -5 -3 -8 -7 -6 -5 3 -52 2 -105 -2 -76 -5 -98 -3 -98 6 0 10 27 13
105 13 67 0 105 -4 105 -11z m116 -2 c4 -4 -17 -6 -47 -6 -45 1 -49 3 -24 9
34 8 61 7 71 -3z"/>
<path d="M4103 1983 c9 -2 25 -2 35 0 9 3 1 5 -18 5 -19 0 -27 -2 -17 -5z"/>
</g>
</svg>
